<?xml version="1.0" encoding="UTF-8"?>
<svg width="24px" height="23px" viewBox="0 0 24 23" version="1.1" xmlns="http://www.w3.org/2000/svg" xmlns:xlink="http://www.w3.org/1999/xlink">
    <!-- Generator: Sketch 63.1 (92452) - https://sketch.com -->
    <title>Utility Icons / report_issue</title>
    <desc>Created with Sketch.</desc>
    <defs>
        <path d="M12.078617,0 L12.078617,0 C5.36809854,0 0,5.13092187 0,11.4461459 C0,13.4194558 0.553412221,15.3927656 1.5795966,17.13048 C1.65707431,17.2885978 1.73771437,17.5257744 1.73771437,17.7613699 L0.395294443,21.3933353 C0.237176666,21.8676886 0.553412221,22.2614019 0.947125486,22.4195196 C1.10524326,22.5001597 1.26336104,22.5001597 1.42147882,22.4195196 L4.97438527,21.1561586 C5.21156194,21.0770997 5.44715743,21.0770997 5.60527521,21.2367987 C7.49952618,22.3404608 9.71159388,22.9713507 11.9204992,22.9713507 C18.6310177,22.9713507 23.9991162,17.7613699 23.9991162,11.4461459 C24.0797563,5.13092187 18.6310177,0 12.078617,0 L12.078617,0 Z" id="path-1"></path>
    </defs>
    <g id="Symbols" stroke="none" stroke-width="1" fill="none" fill-rule="evenodd">
        <g id="SidebarNav" transform="translate(-13.000000, -426.000000)">
            <g id="Utility-Icons-/-report_issue" transform="translate(13.000000, 426.000000)">
                <path d="M12.3948526,18.1566644 C11.2896093,18.1566644 10.9749549,17.5257744 10.9749549,16.7367667 C10.9749549,15.9461778 11.2896093,15.3152879 12.3948526,15.3152879 C13.5000958,15.3152879 13.8147502,15.9461778 13.8147502,16.7367667 C13.8938091,17.5257744 13.5000958,18.1566644 12.3948526,18.1566644 L12.3948526,18.1566644 Z" id="Path" fill="#FFFFFF" fill-rule="nonzero"></path>
                <polygon id="Path" fill="#FFFFFF" fill-rule="nonzero" points="11.2105504 4.50003194 13.5791547 4.50003194 13.5791547 10.0246671 13.341978 13.6566324 11.4461459 13.6566324 11.2896093 10.0246671 11.2896093 4.50003194"></polygon>
                <mask id="mask-2" fill="white">
                    <use xlink:href="#path-1"></use>
                </mask>
                <path stroke="#FFFFFF" d="M12.0732942,0.500011454 C8.86112569,0.501494874 5.96906697,1.72557953 3.87812905,3.70702993 C1.78859136,5.68715342 0.5,8.42412175 0.5,11.4461459 C0.5,13.3314033 1.02984429,15.2162433 2.02859175,16.9104724 C2.14399112,17.1459813 2.25954934,17.5123531 2.23417819,17.8603832 L0.882503345,21.7496553 C0.939665748,21.8559545 1.09325209,21.8760878 1.38214944,21.9110431 L5.67598601,20.6972148 C7.53403326,21.823281 9.72867058,22.4713507 11.9204992,22.4713507 C15.1284236,22.4713507 18.0175306,21.2319855 20.1084618,19.2368556 C22.2052777,17.2361105 23.4991162,14.4747635 23.4991162,11.4461459 C23.53686,8.48709842 22.3058522,5.8071695 20.3082919,3.83993021 C18.2781904,1.84064374 15.4564244,0.579451583 12.0732942,0.500011454 Z"></path>
            </g>
        </g>
    </g>
</svg>